<?xml version="1.0" encoding="utf-8"?>
<!-- Generator: Adobe Illustrator 19.0.0, SVG Export Plug-In . SVG Version: 6.00 Build 0)  -->
<svg version="1.1" id="Layer_1" xmlns="http://www.w3.org/2000/svg" xmlns:xlink="http://www.w3.org/1999/xlink" x="0px" y="0px"
	 width="18.3px" height="17.8px" viewBox="0 0 18.3 17.8" style="enable-background:new 0 0 18.3 17.8;" xml:space="preserve">
<path d="M9.1,0.6c-4.6,0-8.3,3.7-8.3,8.3c0,4.6,3.7,8.3,8.3,8.3s8.3-3.7,8.3-8.3
	C17.4,4.3,13.7,0.6,9.1,0.6z M10.2,4.4l-0.4,6H8.1l-0.4-6H10.2z M9.9,13.3c-0.2,0.2-0.5,0.3-0.9,0.3s-0.7-0.1-0.9-0.3
	c-0.2-0.2-0.4-0.5-0.4-0.8s0.1-0.6,0.4-0.8s0.5-0.3,0.9-0.3s0.7,0.1,0.9,0.3s0.4,0.5,0.4,0.8S10.1,13.1,9.9,13.3z"/>
</svg>
